<?xml version="1.0" encoding="UTF-8" standalone="no"?>
<svg
   xmlns:xhtml="http://www.w3.org/1999/xhtml"
   xmlns:dc="http://purl.org/dc/elements/1.1/"
   xmlns:cc="http://creativecommons.org/ns#"
   xmlns:rdf="http://www.w3.org/1999/02/22-rdf-syntax-ns#"
   xmlns:svg="http://www.w3.org/2000/svg"
   xmlns="http://www.w3.org/2000/svg"
   xmlns:sodipodi="http://sodipodi.sourceforge.net/DTD/sodipodi-0.dtd"
   xmlns:inkscape="http://www.inkscape.org/namespaces/inkscape"
   version="1.1"
   width="535"
   height="112.43708"
   viewBox="0 0 535 112.43708"
   id="svg2"
   inkscape:version="0.91 r13725"
   sodipodi:docname="equityfile logo.svg">
  <metadata
     id="metadata124">
    <rdf:RDF>
      <cc:Work
         rdf:about="">
        <dc:format>image/svg+xml</dc:format>
        <dc:type
           rdf:resource="http://purl.org/dc/dcmitype/StillImage" />
        <dc:title></dc:title>
      </cc:Work>
    </rdf:RDF>
  </metadata>
  <sodipodi:namedview
     pagecolor="#ffffff"
     bordercolor="#666666"
     borderopacity="1"
     objecttolerance="10"
     gridtolerance="10"
     guidetolerance="10"
     inkscape:pageopacity="0"
     inkscape:pageshadow="2"
     inkscape:window-width="1366"
     inkscape:window-height="702"
     id="namedview122"
     showgrid="false"
     inkscape:zoom="0.65849319"
     inkscape:cx="179.4501"
     inkscape:cy="169.73548"
     inkscape:window-x="0"
     inkscape:window-y="27"
     inkscape:window-maximized="1"
     inkscape:current-layer="obj_1"
     fit-margin-top="0"
     fit-margin-left="0"
     fit-margin-right="0"
     fit-margin-bottom="0" />
  <defs
     id="defs4">
    <xhtml:style
       type="text/css">@import url(https://fonts.googleapis.com/css?family=Crafty+Girls:regular);</xhtml:style>
  </defs>
  <g
     id="obj_1"
     transform="translate(-52.495,-333.712)">
    <g
       id="obj_5"
       transform="translate(0,54)"
       display="inline"
       style="display:inline;opacity:1">
      <text
         x="0"
         y="0"
         font-size="60"
         letter-spacing="0"
         font-weight="normal"
         font-style="normal"
         id="text8"
         style="font-style:normal;font-weight:normal;font-size:60px;font-family:Arial;letter-spacing:0;fill:#000000;fill-opacity:1;stroke:none;stroke-width:1;stroke-linecap:square;stroke-linejoin:miter">
        <tspan
           x="0"
           y="0"
           id="tspan10" />
      </text>
      <defs
         id="defs12" />
    </g>
    <g
       id="obj_6"
       transform="translate(52.995,334.212)"
       display="inline"
       style="display:inline;opacity:1">
      <path
         d="m 58.521,38.66 c -2.1,-2.144 -4.749,-3.763 -7.948,-4.856 -3.197,-1.092 -6.847,-1.637 -10.949,-1.637 -8.593,0 -15.869,2.447 -21.825,7.343 -5.958,4.895 -8.936,10.904 -8.936,18.026 0,1.132 0.024,2.113 0.073,2.942 0.049,0.83 49.585,-21.818 49.585,-21.818 z m 10.766,42.606 c -4.931,3.034 -9.814,5.27 -14.648,6.706 -4.834,1.437 -9.84,2.154 -15.015,2.154 -11.377,0 -20.825,-3.105 -28.343,-9.315 C 3.76,74.599 0,66.881 0,57.657 0,48.432 3.785,40.743 11.353,34.593 c 7.568,-6.149 16.992,-9.224 28.271,-9.224 7.129,0 13.367,1.274 18.715,3.824 5.346,2.549 9.508,6.23 12.487,11.045 L 12.159,68.946 c 2.783,4.451 6.568,7.89 11.352,10.317 4.785,2.428 10.157,3.642 16.113,3.642 4.737,0 9.424,-0.821 14.063,-2.459 4.64,-1.638 9.839,-4.339 15.6,-8.102 l 0,8.922 z M 85.694,57.657 c 0,7.08 3.016,13.119 9.045,18.116 6.03,4.997 13.318,7.496 21.862,7.496 8.546,0 15.833,-2.499 21.864,-7.496 6.03,-4.997 9.045,-11.036 9.045,-18.116 0,-7.08 -3.015,-13.12 -9.045,-18.117 -6.031,-4.997 -13.318,-7.496 -21.864,-7.496 -8.544,0 -15.832,2.499 -21.862,7.496 -6.029,4.997 -9.045,11.037 -9.045,18.117 z m 61.816,18.632 c -4.59,4.693 -9.411,8.173 -14.465,10.438 -5.054,2.267 -10.535,3.399 -16.444,3.399 -11.23,0 -20.641,-3.115 -28.233,-9.345 -7.594,-6.232 -11.39,-13.94 -11.39,-23.124 0,-9.186 3.784,-16.862 11.353,-23.033 7.567,-6.17 16.992,-9.255 28.27,-9.255 6.251,0 11.952,1.133 17.103,3.399 5.151,2.265 9.752,5.684 13.806,10.257 l 0,-12.321 8.35,-0.85 0,84.605 -8.35,0.91 0,-35.08 z m 73.608,2.609 c -3.125,3.804 -6.714,6.647 -10.765,8.528 -4.054,1.881 -8.595,2.822 -13.623,2.822 -8.303,0 -14.759,-2.094 -19.374,-6.282 -4.614,-4.188 -6.921,-10.064 -6.921,-17.631 l 0,-39.631 8.423,-0.85 0,37.022 c 0,7.202 1.648,12.583 4.944,16.145 3.294,3.56 8.239,5.34 14.831,5.34 6.055,0 11.317,-1.851 15.784,-5.553 4.468,-3.702 6.701,-8.184 6.701,-13.443 l 0,-38.661 8.423,-0.85 0,62.756 -8.423,0.849 0,-10.561 z m 24.83,10.682 0,-62.876 8.569,-0.85 0,62.756 -8.569,0.97 z m 57.275,-0.97 c -1.465,0.283 -2.869,0.495 -4.211,0.636 -1.343,0.143 -2.602,0.213 -3.772,0.213 -7.52,0 -12.842,-1.74 -15.967,-5.219 -3.125,-3.481 -4.688,-9.852 -4.688,-19.119 l 0,-31.68 -10.841,0 2.418,-6.737 8.423,0 0,-14.687 8.35,-4.188 0,18.875 19.557,0 0,6.737 -19.557,0 0,32.531 c 0,6.676 0.94,11.106 2.82,13.291 1.88,2.184 5.189,3.277 9.924,3.277 1.025,0 2.161,-0.071 3.406,-0.213 1.244,-0.141 2.624,-0.332 4.138,-0.576 l 0,6.859 z m 19.629,22.759 -8.276,-1.882 18.969,-31.438 -34.057,-50.739 8.204,-1.941 30.321,45.337 27.026,-45.337 8.056,1.82 -50.243,84.18 z m 58.227,-21.91 0,-56.018 -10.839,0 2.417,-6.737 8.422,0 c 0,-0.324 -0.024,-0.83 -0.073,-1.517 -0.049,-0.688 -0.074,-1.173 -0.074,-1.457 0,-8.214 2.101,-14.222 6.3,-18.026 C 391.432,1.901 398.023,0 407.007,0 l 2.564,0 2.417,6.312 c -0.391,0 -0.916,-0.021 -1.575,-0.062 -0.659,-0.039 -1.135,-0.06 -1.427,-0.06 -7.08,0 -12.135,1.315 -15.162,3.946 -3.028,2.63 -4.54,7.04 -4.54,13.23 0,0.849 0.01,1.506 0.034,1.973 0.025,0.465 0.087,0.92 0.184,1.365 l 19.484,0 0,6.737 -19.484,0 0,55.169 -8.423,0.849 z m 34.497,0.121 0,-62.876 8.57,-0.85 0,62.756 -8.57,0.97 z m 26.221,0 0,-87.76 8.57,-0.971 0,87.761 -8.57,0.97 z M 472.339,62.998 521.704,38.66 c -2.098,-2.144 -4.748,-3.763 -7.946,-4.856 -3.2,-1.092 -6.847,-1.637 -10.949,-1.637 -8.595,0 -15.87,2.447 -21.827,7.343 -5.957,4.895 -8.935,10.904 -8.935,18.026 0,1.132 0.025,2.113 0.071,2.942 0.05,0.83 0.124,1.669 0.221,2.52 z m 60.132,18.268 c -4.932,3.034 -9.814,5.27 -14.648,6.706 -4.834,1.437 -9.839,2.154 -15.014,2.154 -11.377,0 -20.826,-3.105 -28.346,-9.315 -7.52,-6.212 -11.279,-13.93 -11.279,-23.154 0,-9.225 3.784,-16.914 11.352,-23.064 7.57,-6.149 16.992,-9.224 28.273,-9.224 7.128,0 13.365,1.274 18.712,3.824 5.347,2.549 9.51,6.23 12.488,11.045 l -58.667,28.708 c 2.783,4.451 6.568,7.89 11.352,10.317 4.787,2.428 10.157,3.642 16.115,3.642 4.735,0 9.422,-0.821 14.061,-2.459 4.639,-1.638 9.84,-4.339 15.601,-8.102 l 0,8.922 z"
         id="path15"
         inkscape:connector-curvature="0"
         style="fill:url(#obj_6_grad_pat_fill);fill-opacity:1;stroke:#ffffff;stroke-width:1;stroke-linecap:square;stroke-linejoin:miter;stroke-opacity:1" />
      <defs
         id="defs17">
        <linearGradient
           x2="-0.22916946"
           y2="244.22337"
           id="obj_6_grad_pat_fill"
           gradientTransform="scale(2.1817916,0.45833892)"
           x1="-0.22916946"
           y1="-1.0908958"
           gradientUnits="userSpaceOnUse">
          <stop
             offset="0"
             stop-color="#5e5e5e"
             stop-opacity="0.99609375"
             id="stop20" />
          <stop
             offset="1"
             stop-color="#111111"
             stop-opacity="1"
             id="stop22" />
        </linearGradient>
      </defs>
    </g>
    <g
       id="obj_7"
       transform="translate(0,58.1875)"
       display="inline"
       style="display:inline;opacity:1">
      <text
         x="0"
         y="0"
         font-size="60"
         letter-spacing="0"
         font-weight="normal"
         font-style="normal"
         id="text25"
         style="font-style:normal;font-weight:normal;font-size:60px;font-family:'Crafty Girls';letter-spacing:0;fill:#000000;fill-opacity:1;stroke:none;stroke-width:1;stroke-linecap:square;stroke-linejoin:miter">
        <tspan
           x="0"
           y="0"
           id="tspan27" />
      </text>
      <defs
         id="defs29" />
    </g>
    <g
       id="obj_11"
       transform="translate(468.111,347)"
       display="inline"
       style="display:inline;opacity:1">
      <path
         d="M 4.75,0 C 7.372,0 9.5,2.128 9.5,4.75 9.5,7.372 7.372,9.5 4.75,9.5 2.128,9.5 0,7.372 0,4.75 0,2.128 2.128,0 4.75,0 Z"
         id="path86"
         inkscape:connector-curvature="0"
         style="fill:url(#obj_11_grad_pat_fill);fill-opacity:1;stroke:#ffffff;stroke-width:1;stroke-linecap:square;stroke-linejoin:miter;stroke-opacity:1" />
      <defs
         id="defs88">
        <linearGradient
           x2="-0.5"
           y2="10"
           id="obj_11_grad_pat_fill"
           x1="-0.5"
           y1="-0.5"
           gradientUnits="userSpaceOnUse">
          <stop
             offset="0"
             stop-color="#5e5e5e"
             stop-opacity="0.99609375"
             id="stop91" />
          <stop
             offset="1"
             stop-color="#111111"
             stop-opacity="1"
             id="stop93" />
        </linearGradient>
      </defs>
    </g>
    <g
       id="obj_13"
       transform="translate(0,54.546875)"
       display="inline"
       style="display:inline;opacity:1">
      <text
         x="0"
         y="0"
         font-size="60"
         letter-spacing="0"
         font-weight="normal"
         font-style="normal"
         id="text96"
         style="font-style:normal;font-weight:normal;font-size:60px;font-family:Arial;letter-spacing:0;fill:#000000;fill-opacity:1;stroke:none;stroke-width:1;stroke-linecap:square;stroke-linejoin:miter">
        <tspan
           x="0"
           y="0"
           id="tspan98" />
      </text>
      <defs
         id="defs100" />
    </g>
    <g
       id="obj_15"
       transform="translate(400434,348.91)"
       display="inline"
       style="display:inline;opacity:1">
      <path
         d="M 4.861,0 C 7.544272,0 9.722,2.17728 9.722,4.86 9.722,7.54272 7.544272,9.72 4.861,9.72 2.177728,9.72 0,7.54272 0,4.86 0,2.17728 2.177728,0 4.861,0 Z"
         id="path103"
         inkscape:connector-curvature="0"
         style="fill:url(#obj_15_grad_pat_fill);fill-opacity:1;stroke:#ffffff;stroke-width:1;stroke-linecap:square;stroke-linejoin:miter;stroke-opacity:1" />
      <defs
         id="defs105">
        <linearGradient
           x2="-0.49995336"
           y2="10.220953"
           id="obj_15_grad_pat_fill"
           gradientTransform="scale(1.0000933,0.99990673)"
           x1="-0.49995336"
           y1="-0.50004661"
           gradientUnits="userSpaceOnUse">
          <stop
             offset="0"
             stop-color="#5e5e5e"
             stop-opacity="0.99609375"
             id="stop108" />
          <stop
             offset="1"
             stop-color="#111111"
             stop-opacity="1"
             id="stop110" />
        </linearGradient>
      </defs>
    </g>
    <g
       id="obj_16"
       transform="translate(299,347)"
       display="inline"
       style="display:inline;opacity:1">
      <path
         d="M 4.75,0 C 7.372,0 9.5,2.128 9.5,4.75 9.5,7.372 7.372,9.5 4.75,9.5 2.128,9.5 0,7.372 0,4.75 0,2.128 2.128,0 4.75,0 Z"
         id="path113"
         inkscape:connector-curvature="0"
         style="fill:url(#obj_16_grad_pat_fill);fill-opacity:1;stroke:#ffffff;stroke-width:1;stroke-linecap:square;stroke-linejoin:miter;stroke-opacity:1" />
      <defs
         id="defs115">
        <linearGradient
           x2="-0.5"
           y2="10"
           id="obj_16_grad_pat_fill"
           x1="-0.5"
           y1="-0.5"
           gradientUnits="userSpaceOnUse">
          <stop
             offset="0"
             stop-color="#5e5e5e"
             stop-opacity="0.99609375"
             id="stop118" />
          <stop
             offset="1"
             stop-color="#111111"
             stop-opacity="1"
             id="stop120" />
        </linearGradient>
      </defs>
    </g>
  </g>
</svg>
